<svg width="64" height="65" viewBox="0 0 64 65" fill="none" xmlns="http://www.w3.org/2000/svg">
<g clip-path="url(#clip0_11_224)">
<path d="M32 64.5C23.4525 64.5 15.4166 61.1714 9.3725 55.1275C3.32863 49.0834 0 41.0475 0 32.5C0 23.9525 3.32863 15.9166 9.3725 9.8725C15.4166 3.82863 23.4525 0.5 32 0.5C40.5475 0.5 48.5834 3.82863 54.6275 9.8725C60.6714 15.9166 64 23.9525 64 32.5C64 41.0475 60.6714 49.0834 54.6275 55.1275C48.5834 61.1714 40.5475 64.5 32 64.5ZM32 5.5C24.788 5.5 18.0077 8.3085 12.9081 13.4081C7.8085 18.5077 5 25.288 5 32.5C5 39.712 7.8085 46.4922 12.9081 51.5919C18.0077 56.6915 24.788 59.5 32 59.5C39.2119 59.5 45.9922 56.6915 51.0919 51.5919C56.1915 46.4922 59 39.712 59 32.5C59 25.288 56.1915 18.5077 51.0919 13.4081C45.9922 8.3085 39.2119 5.5 32 5.5ZM42.6066 46.6421L32 36.0355L21.3934 46.6421L17.8579 43.1066L28.4645 32.5L17.8579 21.8934L21.3934 18.3579L32 28.9645L42.6066 18.3579L46.1423 21.8934L35.5355 32.5L46.1423 43.1066L42.6066 46.6421Z" fill="#FF0000"/>
</g>
<defs>
<clipPath id="clip0_11_224">
<rect width="64" height="64" fill="white" transform="translate(0 0.5)"/>
</clipPath>
</defs>
</svg>
